<svg width="24" height="24" viewBox="0 0 24 24" fill="none" xmlns="http://www.w3.org/2000/svg">
<path d="M19.2723 4.146C20.7781 4.146 21.9995 5.35617 22.0204 6.85693C22.0208 6.86541 22.0212 6.87385 22.0214 6.88232C22.0214 6.88688 22.0223 6.89143 22.0223 6.896V16.896C22.0223 18.4148 20.7911 19.646 19.2723 19.646H5.27234C3.75359 19.646 2.52234 18.4148 2.52234 16.896V6.87256C2.52252 6.86668 2.52398 6.86086 2.52429 6.85498C2.54623 5.35515 3.7673 4.14604 5.27234 4.146H19.2723ZM12.6884 13.52C12.4364 13.6879 12.1082 13.688 11.8563 13.52L4.02234 8.29736V16.896C4.02234 17.5863 4.58202 18.146 5.27234 18.146H19.2723C19.9627 18.146 20.5223 17.5864 20.5223 16.896V8.29736L12.6884 13.52ZM5.27234 5.646C4.70912 5.64603 4.23329 6.01867 4.07703 6.53076L12.2723 11.9946L20.4677 6.52979C20.3111 6.01815 19.8352 5.646 19.2723 5.646H5.27234Z" fill="#141718"/>
</svg>
