<svg width="24" height="25" viewBox="0 0 24 25" fill="none" xmlns="http://www.w3.org/2000/svg">
<path fill-rule="evenodd" clip-rule="evenodd" d="M12.6924 7.58381C12.3055 7.95512 11.6945 7.95512 11.3076 7.58381L10.6152 6.91935C9.80477 6.14162 8.70994 5.66675 7.5 5.66675C5.01472 5.66675 3 7.68147 3 10.1667C3 12.5494 4.28979 14.5168 6.15176 16.1333C8.01532 17.7512 10.2434 18.8242 11.5746 19.3718C11.853 19.4863 12.147 19.4863 12.4254 19.3718C13.7566 18.8242 15.9847 17.7512 17.8482 16.1333C19.7102 14.5168 21 12.5494 21 10.1667C21 7.68147 18.9853 5.66675 16.5 5.66675C15.2901 5.66675 14.1952 6.14162 13.3848 6.91935L12.6924 7.58381ZM12 5.47632C10.8321 4.35555 9.24649 3.66675 7.5 3.66675C3.91015 3.66675 1 6.5769 1 10.1667C1 16.535 7.97034 20.0518 10.8138 21.2214C11.5796 21.5364 12.4204 21.5364 13.1862 21.2214C16.0297 20.0518 23 16.535 23 10.1667C23 6.5769 20.0899 3.66675 16.5 3.66675C14.7535 3.66675 13.1679 4.35555 12 5.47632Z" fill="#141718"/>
</svg>
