<svg width="33" height="32" viewBox="0 0 33 32" fill="none" xmlns="http://www.w3.org/2000/svg">
<path d="M27.4993 16V24C27.4993 26.9455 25.1115 29.3333 22.166 29.3333H11.4993C8.55383 29.3333 6.16602 26.9455 6.16602 24V16" stroke="#141718" stroke-width="2.5" stroke-linejoin="round"/>
<path d="M23.1916 2.6665H10.475C8.05182 2.6665 5.87281 4.32618 4.97288 6.85723L3.96223 9.69967C3.6563 10.5601 3.44483 11.4808 3.66797 12.3663C4.19643 14.4635 5.91093 15.9998 7.94439 15.9998C10.399 15.9998 12.3888 13.7613 12.3888 10.9998C12.3888 13.7613 14.3787 15.9998 16.8333 15.9998C19.2879 15.9998 21.2777 13.7613 21.2777 10.9998C21.2777 13.7613 23.2676 15.9998 25.7222 15.9998C27.7556 15.9998 29.4701 14.4635 29.9986 12.3663C30.2217 11.4808 30.0103 10.5601 29.7043 9.69967L28.6937 6.85723C27.7938 4.32618 25.6147 2.6665 23.1916 2.6665Z" stroke="#141718" stroke-width="2.5" stroke-linejoin="round"/>
<path d="M12.833 25.3335C12.833 23.1244 14.6239 21.3335 16.833 21.3335C19.0421 21.3335 20.833 23.1244 20.833 25.3335V29.3335H12.833V25.3335Z" stroke="#141718" stroke-width="2.5" stroke-linejoin="round"/>
</svg>
